<?xml version="1.0" encoding="utf-8"?>
<svg viewBox="-8.641 -7.814 500 500" xmlns="http://www.w3.org/2000/svg">
  <g id="er3eff4ewmej2" transform="matrix(1, 0, 0, 1, 227.644013, 168.401425)">
    <g id="er3eff4ewmej3" transform="matrix(1 0 0 1 0 -1)">
      <path id="er3eff4ewmej4" d="M51.581000,39.186000L44.581000,34.186000C44.411434,34.064999,44.208313,33.999972,44,34L10,34C9.791688,33.999972,9.588566,34.064999,9.419000,34.186000L2.419000,39.186000C1.969440,39.506877,1.865123,40.131440,2.186000,40.581000C2.506877,41.030560,3.131440,41.134877,3.581000,40.814000L10,36.229000L10,57C10,58.104569,10.895430,59,12,59L42,59C43.104569,59,44,58.104569,44,57L44,36.229000L50.419000,40.814000C50.868560,41.134877,51.493123,41.030560,51.814000,40.581000C52.134877,40.131440,52.030560,39.506877,51.581000,39.186000Z" transform="matrix(1 0 0 1 0.35544444499990 0.00000000499989)" stroke="none" stroke-width="1" style="fill: rgb(111, 197, 100);"/>
      <g id="er3eff4ewmej5_to" transform="translate(27.355601,19.423644)" style="animation-duration: 2s; animation-fill-mode: forwards; animation-name: er3eff4ewmej5_to__to; animation-timing-function: linear;">
        <g id="er3eff4ewmej5_tr" transform="rotate(0)" style="animation-duration: 2s; animation-fill-mode: forwards; animation-name: er3eff4ewmej5_tr__tr; animation-timing-function: linear;">
          <path id="er3eff4ewmej5" d="M40.969000,5.493000L46,2L46,7L51,7C51,7,46,14.993000,39,15L27,17L15,15C8,15.007000,3,7,3,7L8,7.007000L8,2L12.829000,5.522000L27,10Z" transform="translate(-27,-9.500000)" stroke="none" stroke-width="1" style="fill: rgb(104, 158, 97);"/>
        </g>
      </g>
      <g id="er3eff4ewmej6_to" transform="translate(19.855434,18.243691)" style="animation-duration: 2s; animation-fill-mode: forwards; animation-name: er3eff4ewmej6_to__to; animation-timing-function: linear;">
        <g id="er3eff4ewmej6_tr" transform="rotate(0)" style="animation-duration: 2s; animation-fill-mode: forwards; animation-name: er3eff4ewmej6_tr__tr; animation-timing-function: linear;">
          <path id="er3eff4ewmej6" d="M27,8.990000C27,8.990000,25.552000,1.457000,18.459000,1C18.053586,0.979233,17.650887,1.076867,17.300000,1.281000C14.912317,2.576277,13.082482,4.702129,12.157000,7.256000C11.863809,8.157232,11.984250,9.141993,12.486000,9.946000C14.098000,12.502000,18.486000,18.035000,24.441000,14.146000Z" transform="translate(-19.499833,-8.243691)" fill="rgb(240,196,25)" stroke="none" stroke-width="1"/>
        </g>
      </g>
      <g id="er3eff4ewmej7_to" transform="translate(21.226381,18.177907)" style="animation-duration: 2s; animation-fill-mode: forwards; animation-name: er3eff4ewmej7_to__to; animation-timing-function: linear;">
        <g id="er3eff4ewmej7_tr" transform="rotate(0)" style="animation-duration: 2s; animation-fill-mode: forwards; animation-name: er3eff4ewmej7_tr__tr; animation-timing-function: linear;">
          <path id="er3eff4ewmej7" d="M22.360000,11.360000C20.161035,10.032213,18.592195,7.871902,18.010000,5.370000C17.950000,5.140000,18.220000,4.940000,18.500000,5.010000C21.520000,5.700000,23.100000,8.320000,23.740000,9.700000Z" transform="translate(-20.870780,-8.177907)" fill="rgb(242,156,31)" stroke="none" stroke-width="1"/>
        </g>
      </g>
      <g id="er3eff4ewmej8_to" transform="translate(34.856139,18.235502)" style="animation-duration: 2s; animation-fill-mode: forwards; animation-name: er3eff4ewmej8_to__to; animation-timing-function: linear;">
        <g id="er3eff4ewmej8_tr" transform="rotate(0)" style="animation-duration: 2s; animation-fill-mode: forwards; animation-name: er3eff4ewmej8_tr__tr; animation-timing-function: linear;">
          <path id="er3eff4ewmej8" d="M27,9C27,9,28.434000,1.470000,35.527000,1C35.932383,0.978880,36.335227,1.075423,36.687000,1.278000C39.076235,2.567098,40.910205,4.687103,41.842000,7.237000C42.136721,8.136504,42.018090,9.120335,41.518000,9.924000C39.871000,12.544000,35.309000,18.296000,29.118000,13.824000Z" transform="translate(-34.500538,-8.235502)" fill="rgb(240,196,25)" stroke="none" stroke-width="1"/>
        </g>
      </g>
      <g id="er3eff4ewmej9_to" transform="translate(33.484821,18.189403)" style="animation-duration: 2s; animation-fill-mode: forwards; animation-name: er3eff4ewmej9_to__to; animation-timing-function: linear;">
        <g id="er3eff4ewmej9_tr" transform="rotate(0)" style="animation-duration: 2s; animation-fill-mode: forwards; animation-name: er3eff4ewmej9_tr__tr; animation-timing-function: linear;">
          <path id="er3eff4ewmej9" d="M30.260000,9.710000L30.260000,9.700000C31.207521,7.424672,33.133948,5.700446,35.500000,5.010000C35.780000,4.950000,36.050000,5.140000,35.990000,5.370000C35.408051,7.874380,33.844255,10.039914,31.650000,11.380000Z" transform="translate(-33.129220,-8.189403)" fill="rgb(242,156,31)" stroke="none" stroke-width="1"/>
        </g>
      </g>
      <g id="er3eff4ewmej10_to" transform="translate(27.355601,29)" style="animation-duration: 2s; animation-fill-mode: forwards; animation-name: er3eff4ewmej10_to__to; animation-timing-function: linear;">
        <g id="er3eff4ewmej10_tr" transform="rotate(0)" style="animation-duration: 2s; animation-fill-mode: forwards; animation-name: er3eff4ewmej10_tr__tr; animation-timing-function: linear;">
          <path id="er3eff4ewmej10" d="M44,23C44.552285,23,45,22.552285,45,22L45,19C45,16.790861,43.209139,15,41,15L13,15C10.790861,15,9,16.790861,9,19L9,22C9,22.552285,9.447715,23,10,23Z" transform="translate(-27,-19)" stroke="none" stroke-width="1" style="fill: rgb(111, 197, 100);"/>
        </g>
      </g>
      <g id="er3eff4ewmej11_to" transform="translate(27.355601,32.500000)" style="animation-duration: 2s; animation-fill-mode: forwards; animation-name: er3eff4ewmej11_to__to; animation-timing-function: linear;">
        <g id="er3eff4ewmej11_tr" transform="rotate(0)" style="animation-duration: 2s; animation-fill-mode: forwards; animation-name: er3eff4ewmej11_tr__tr; animation-timing-function: linear;">
          <path id="er3eff4ewmej11" d="M33,15L21,15L21,30L27,25L33,30Z" transform="translate(-27,-22.500000)" fill="rgb(240,196,25)" stroke="none" stroke-width="1"/>
        </g>
      </g>
      <path id="er3eff4ewmej12" d="M23,40L31,40L31,59L23,59Z" stroke="none" stroke-width="1" style="fill: rgb(104, 158, 97);"/>
      <g id="er3eff4ewmej13">
        <path id="er3eff4ewmej14" d="M14,56C13.447715,56,13,55.552285,13,55L13,53C13,52.447715,13.447715,52,14,52C14.552285,52,15,52.447715,15,53L15,55C15,55.552285,14.552285,56,14,56Z" stroke="none" stroke-width="1" style="fill: rgb(104, 158, 97);"/>
        <path id="er3eff4ewmej15" d="M14,50C13.447715,50,13,49.552285,13,49L13,39C13,38.447715,13.447715,38,14,38C14.552285,38,15,38.447715,15,39L15,49C15,49.552285,14.552285,50,14,50Z" stroke="none" stroke-width="1" style="fill: rgb(104, 158, 97);"/>
        <path id="er3eff4ewmej16" d="M40,56C39.447715,56,39,55.552285,39,55L39,53C39,52.447715,39.447715,52,40,52C40.552285,52,41,52.447715,41,53L41,55C41,55.552285,40.552285,56,40,56Z" stroke="none" stroke-width="1" style="fill: rgb(104, 158, 97);"/>
        <path id="er3eff4ewmej17" d="M40,50C39.447715,50,39,49.552285,39,49L39,39C39,38.447715,39.447715,38,40,38C40.552285,38,41,38.447715,41,39L41,49C41,49.552285,40.552285,50,40,50Z" stroke="none" stroke-width="1" style="fill: rgb(104, 158, 97);"/>
      </g>
      <path id="er3eff4ewmej18" d="M8,32L1,32C0.447715,32,0,31.552285,0,31C0,30.447715,0.447715,30,1,30L8,30C8.552285,30,9,30.447715,9,31C9,31.552285,8.552285,32,8,32Z" transform="matrix(1 0 0 1 0.35637236000000 0)" opacity="0" fill="rgb(59,151,211)" stroke="none" stroke-width="1" style="animation-duration: 2s; animation-fill-mode: forwards; animation-name: er3eff4ewmej18_c_o; animation-timing-function: linear;"/>
      <path id="er3eff4ewmej19" d="M8,28C7.818837,28.000064,7.641101,27.950616,7.486000,27.857000L2.486000,24.857000C2.023795,24.567760,1.878489,23.961568,2.159336,23.494216C2.440184,23.026864,3.043653,22.870636,3.516000,23.143000L8.516000,26.143000C8.901162,26.374599,9.084503,26.834700,8.964180,27.267724C8.843856,27.700749,8.449431,28.000307,8,28Z" transform="matrix(1 0 0 1 0.33894660000000 -1.16822193500000)" opacity="0" fill="rgb(59,151,211)" stroke="none" stroke-width="1" style="animation-duration: 2s; animation-fill-mode: forwards; animation-name: er3eff4ewmej19_c_o; animation-timing-function: linear;"/>
      <g id="er3eff4ewmej20_to" transform="translate(27.355601,22)" style="animation-duration: 2s; animation-fill-mode: forwards; animation-name: er3eff4ewmej20_to__to; animation-timing-function: linear;">
        <g id="er3eff4ewmej20_tr" transform="rotate(0)" style="animation-duration: 2s; animation-fill-mode: forwards; animation-name: er3eff4ewmej20_tr__tr; animation-timing-function: linear;">
          <path id="er3eff4ewmej20" d="M26,9L28,9C30.209139,9,32,10.790861,32,13L32,15L22,15L22,13C22,10.790861,23.790861,9,26,9Z" transform="translate(-27,-12)" stroke="none" stroke-width="1" fill="rgb(243,213,91)"/>
        </g>
      </g>
      <path id="er3eff4ewmej21" display="none" d="M33,47L27,42L21,47L21,34L33,34Z" fill="rgb(240,196,25)" stroke="none" stroke-width="1"/>
    </g>
  </g>
</svg>