<svg xmlns="http://www.w3.org/2000/svg" viewBox="0 0 131.7 183.5"><defs><style>.cls-1{fill:#73acdd;}.cls-2{fill:#ffea7e;}.cls-3{fill:#44a3db;}.cls-4{fill:#ffd679;}</style></defs><g id="Layer_2" data-name="Layer 2"><g id="Layer_1-2" data-name="Layer 1"><path class="cls-1" d="M131.6,170.8h0A177.13,177.13,0,0,1,0,170.8H0L65.8,4.6Z"/><path class="cls-2" d="M10.5,154.6a22.39,22.39,0,0,0,12.3-41.1L6.6,154.3A25.61,25.61,0,0,0,10.5,154.6Z"/><path class="cls-3" d="M65.9,4.6l-.8,2.1V183.5a176.34,176.34,0,0,0,66.6-12.7h0Z"/><circle class="cls-4" cx="74.2" cy="54.4" r="8.3"/><circle class="cls-2" cx="68.3" cy="112" r="14.2"/><path class="cls-4" d="M99.4,141.3A25.24,25.24,0,0,0,80.3,183a177.89,177.89,0,0,0,43.1-9,26.68,26.68,0,0,0,1.1-7.5A25.07,25.07,0,0,0,99.4,141.3Z"/><path class="cls-4" d="M68.3,97.8a12.42,12.42,0,0,0-3.3.4v27.6a12.42,12.42,0,0,0,3.3.4,14.2,14.2,0,1,0,0-28.4Z"/><circle class="cls-4" cx="65" cy="6.7" r="6.7"/></g></g></svg>