<svg xmlns="http://www.w3.org/2000/svg" viewBox="0 0 143 160"><defs><style>.cls-1{fill:#faaa6d;}.cls-2{fill:#f8a16b;}.cls-3{fill:#ffd679;}.cls-4{fill:#fdc374;}.cls-5{fill:#f179af;}.cls-6{fill:#ef60a3;}.cls-7{fill:#fdebf3;}.cls-8{fill:#ef4136;}.cls-9{fill:#efcedd;}</style></defs><g id="Layer_2" data-name="Layer 2"><g id="Layer_1-2" data-name="Layer 1"><rect class="cls-1" y="69.2" width="143" height="90.8"/><rect class="cls-2" x="71.5" y="69.2" width="71.5" height="90.8"/><rect class="cls-3" y="69.2" width="143" height="23.1"/><rect class="cls-4" x="71.5" y="69.2" width="71.5" height="23.1"/><rect class="cls-3" y="136.9" width="143" height="23.1"/><rect class="cls-4" x="71.5" y="136.9" width="71.5" height="23.1"/><rect class="cls-5" x="17" y="24.5" width="9" height="44.8"/><rect class="cls-6" x="21.5" y="24.5" width="4.5" height="44.8"/><rect class="cls-5" x="50.3" y="35.8" width="9" height="33.5"/><rect class="cls-6" x="54.8" y="35.8" width="4.5" height="33.5"/><rect class="cls-5" x="83.7" y="35.8" width="9" height="33.5"/><rect class="cls-6" x="88.1" y="35.8" width="4.5" height="33.5"/><rect class="cls-5" x="117" y="24.5" width="9" height="44.8"/><rect class="cls-6" x="121.5" y="24.5" width="4.5" height="44.8"/><path class="cls-7" d="M143,109c-.7.3-1.2.7-1.8,1a9,9,0,0,1-5.3,1.6,8.78,8.78,0,0,1-5.3-1.6,19.23,19.23,0,0,0-10.8-3.1A19.51,19.51,0,0,0,109,110a9,9,0,0,1-5.3,1.6,8.78,8.78,0,0,1-5.3-1.6,19.23,19.23,0,0,0-10.8-3.1A19.51,19.51,0,0,0,76.8,110a9,9,0,0,1-5.3,1.6,8.78,8.78,0,0,1-5.3-1.6,19.23,19.23,0,0,0-10.8-3.1A19.51,19.51,0,0,0,44.6,110a9,9,0,0,1-5.3,1.6A8.78,8.78,0,0,1,34,110a19.23,19.23,0,0,0-10.8-3.1A19.51,19.51,0,0,0,12.4,110a9,9,0,0,1-5.3,1.6A9,9,0,0,1,1.8,110,14.51,14.51,0,0,0,0,109v12.2a19.35,19.35,0,0,0,7.1,1.2,19.51,19.51,0,0,0,10.8-3.1,9,9,0,0,1,5.3-1.6,8.78,8.78,0,0,1,5.3,1.6,19.23,19.23,0,0,0,10.8,3.1,19.51,19.51,0,0,0,10.8-3.1,9,9,0,0,1,5.3-1.6,8.78,8.78,0,0,1,5.3,1.6,19.23,19.23,0,0,0,10.8,3.1,19.51,19.51,0,0,0,10.8-3.1,9,9,0,0,1,5.3-1.6,8.78,8.78,0,0,1,5.3,1.6,19.23,19.23,0,0,0,10.8,3.1,19.51,19.51,0,0,0,10.8-3.1,9,9,0,0,1,5.3-1.6,8.78,8.78,0,0,1,5.3,1.6,20.82,20.82,0,0,0,17.9,1.9Z"/><path class="cls-8" d="M26,19.5h0a6.22,6.22,0,0,1-8.9,0h0a6.28,6.28,0,0,1-1.3-7.1L21.5,0l5.7,12.4A6.39,6.39,0,0,1,26,19.5Z"/><path class="cls-8" d="M125.9,19.5h0a6.22,6.22,0,0,1-8.9,0h0a6.28,6.28,0,0,1-1.3-7.1L121.4,0l5.7,12.4A6.07,6.07,0,0,1,125.9,19.5Z"/><path class="cls-8" d="M59.3,32h0a6.22,6.22,0,0,1-8.9,0h0a6.28,6.28,0,0,1-1.3-7.1l5.7-12.4,5.7,12.4A6.09,6.09,0,0,1,59.3,32Z"/><path class="cls-8" d="M92.6,32h0a6.22,6.22,0,0,1-8.9,0h0a6.28,6.28,0,0,1-1.3-7.1l5.7-12.4,5.7,12.4A6.09,6.09,0,0,1,92.6,32Z"/><path class="cls-9" d="M141.2,110a9,9,0,0,1-5.3,1.6,8.78,8.78,0,0,1-5.3-1.6,19.23,19.23,0,0,0-10.8-3.1A19.51,19.51,0,0,0,109,110a9,9,0,0,1-5.3,1.6,8.78,8.78,0,0,1-5.3-1.6,19.23,19.23,0,0,0-10.8-3.1A19.51,19.51,0,0,0,76.8,110a9,9,0,0,1-5.3,1.6v10.8a19.51,19.51,0,0,0,10.8-3.1,9,9,0,0,1,5.3-1.6,8.78,8.78,0,0,1,5.3,1.6,19.23,19.23,0,0,0,10.8,3.1,19.51,19.51,0,0,0,10.8-3.1,9,9,0,0,1,5.3-1.6,8.78,8.78,0,0,1,5.3,1.6,20.82,20.82,0,0,0,17.9,1.9V109A7.68,7.68,0,0,0,141.2,110Z"/></g></g></svg>