<svg xmlns="http://www.w3.org/2000/svg" viewBox="0 0 135.6 170.32"><defs><style>.cls-1{fill:#fdc374;}.cls-2{fill:#f26d64;}.cls-3{fill:#d65055;}.cls-4{fill:#ffd679;}.cls-5{fill:#d14e53;}.cls-6{fill:#faac6e;}</style></defs><g id="Layer_2" data-name="Layer 2"><g id="Layer_1-2" data-name="Layer 1"><path class="cls-1" d="M106.3,6.12c-19.9-27.7-45.6,47.7-45.6,47.5C64.1,44.72,126.2,33.82,106.3,6.12ZM70.7,42.92C70.7,43,86-2,97.9,14.52S72.7,37.52,70.7,42.92Z"/><rect class="cls-2" x="4.4" y="51.12" width="126.8" height="119.2"/><rect class="cls-3" x="67.8" y="51.12" width="63.4" height="119.2"/><rect class="cls-2" y="51.12" width="135.6" height="35.8"/><rect class="cls-3" x="67.8" y="51.12" width="67.8" height="35.8"/><rect class="cls-4" x="49.9" y="51.12" width="35.8" height="35.8"/><rect class="cls-1" x="67.8" y="51.12" width="17.9" height="35.8"/><rect class="cls-4" x="56" y="86.92" width="23.7" height="83.4"/><rect class="cls-1" x="67.8" y="86.92" width="11.8" height="83.4"/><path class="cls-4" d="M9.7,23.82c-13.2,19.3,53.9,27.3,53.9,27.3C59.2,45.12,22.8,4.52,9.7,23.82Zm7.8,2.4c6.6-9.6,24.7,10.6,26.9,13.6C44.4,39.92,10.9,35.92,17.5,26.22Z"/><rect class="cls-5" x="4.4" y="86.92" width="126.8" height="5.1"/><rect class="cls-6" x="56" y="86.92" width="23.7" height="5.1"/></g></g></svg>