<svg xmlns="http://www.w3.org/2000/svg" viewBox="0 0 142.6 155.7"><defs><style>.cls-1{fill:#44a3db;}.cls-2{fill:#008fc6;}.cls-3{fill:#ffea7e;}.cls-4{fill:#3e93c5;}.cls-5{fill:#0074a1;}.cls-6{fill:#d1d3d4;}.cls-7{fill:#c0c2c4;}.cls-8{fill:#ffd478;}.cls-9{fill:#fff;}</style></defs><g id="Layer_2" data-name="Layer 2"><g id="Layer_1-2" data-name="Layer 1"><path class="cls-1" d="M8.5,0H134.1a8.49,8.49,0,0,1,8.5,8.5V142.6H0V8.5A8.49,8.49,0,0,1,8.5,0Z"/><path class="cls-2" d="M70.6,0h63.5a8.49,8.49,0,0,1,8.5,8.5V142.6h-72V0Z"/><polygon class="cls-3" points="142.6 142.6 0 142.6 2.6 155.7 140 155.7 142.6 142.6"/><circle class="cls-4" cx="71.3" cy="71.3" r="54.1"/><path class="cls-5" d="M71.3,17.2h-.7V125.5h.7a54.15,54.15,0,0,0,0-108.3Z"/><circle class="cls-6" cx="71.3" cy="71.3" r="49.8" transform="translate(-17.6 118.88) rotate(-73.15)"/><path class="cls-7" d="M71.3,21.5h-.7V121h.7a49.75,49.75,0,1,0,0-99.5Z"/><circle class="cls-3" cx="71.3" cy="71.3" r="22"/><rect class="cls-3" x="11.1" y="10.8" width="12.1" height="15.4"/><rect class="cls-3" x="17.2" y="91.1" width="23.8" height="3.2"/><rect class="cls-8" x="14.5" y="26.2" width="5.3" height="70.1"/><path class="cls-8" d="M71.3,49.3h-.7v44h.7a22,22,0,0,0,0-44Z"/><circle class="cls-9" cx="71.3" cy="71.3" r="9.4"/><polygon class="cls-8" points="70.6 142.6 70.6 155.7 140 155.7 142.6 142.6 70.6 142.6"/></g></g></svg>