<svg xmlns="http://www.w3.org/2000/svg" viewBox="0 0 196 86.1"><defs><style>.cls-1{fill:#bfd730;}.cls-2{fill:#d7df23;}.cls-3{fill:#ffd679;}.cls-4{fill:#ffea7e;}</style></defs><g id="Layer_2" data-name="Layer 2"><g id="Layer_1-2" data-name="Layer 1"><path class="cls-1" d="M155.3,81.6H39.8V67.9H155.3a27,27,0,0,0,0-54H93.5a16.7,16.7,0,0,0,0,33.4h55.8a5.7,5.7,0,0,0,0-11.4H108l-4.2-13.7h45.5a19.3,19.3,0,0,1,0,38.6H93.5A30.4,30.4,0,0,1,93.5,0h61.8a40.8,40.8,0,0,1,0,81.6Z"/><path class="cls-2" d="M195.8,37.5A40.77,40.77,0,0,0,155.3.3H93.5A30.42,30.42,0,0,0,63.3,27.2,30.42,30.42,0,0,0,93.5,54.1h55.8a19.25,19.25,0,0,0,19-15.8,19.25,19.25,0,0,0-19-15.8H106l2.1,6.7h41.3a5.7,5.7,0,0,1,5.7,5.7,6.15,6.15,0,0,1-1.2,3.5,6.15,6.15,0,0,1,1.2,3.5,5.7,5.7,0,0,1-5.7,5.7H93.6A16.73,16.73,0,0,1,76.9,30.9a13.93,13.93,0,0,1,.4-3.5,19.73,19.73,0,0,1-.4-3.5A16.73,16.73,0,0,1,93.6,7.2h61.8a27,27,0,0,1,27,27c0,1.2-.1,2.3-.2,3.5.1,1.1.2,2.3.2,3.5a27,27,0,0,1-27,27H39.8v6.7H155.3A41.11,41.11,0,0,0,195.8,37.5Z"/><polygon class="cls-3" points="61.3 86.1 0 86.1 0 71 22.7 63.3 61.3 63.3 61.3 86.1"/><polygon class="cls-4" points="0 71 0 74.7 61.3 74.7 61.3 63.3 22.7 63.3 0 71"/></g></g></svg>