<svg xmlns="http://www.w3.org/2000/svg" viewBox="0 0 160.5 214.3"><defs><style>.cls-1{fill:#f179af;}.cls-2{fill:#fdebf3;}.cls-3{fill:#ffd679;}.cls-4{fill:#fdc374;}.cls-5{fill:#faaa6d;}.cls-6{fill:#f8a16b;}</style></defs><g id="Layer_2" data-name="Layer 2"><g id="Layer_1-2" data-name="Layer 1"><circle class="cls-1" cx="28.5" cy="28.5" r="28.5"/><path class="cls-2" d="M24.2,22.6,18.7,11.5a1.41,1.41,0,0,0-2.1-.5,21.86,21.86,0,0,0-6.4,6.8,1.42,1.42,0,0,0,.7,2l11.4,4.8a1.38,1.38,0,0,0,1.6-.4h0A1.27,1.27,0,0,0,24.2,22.6Z"/><path class="cls-2" d="M22.3,28.7h0a1.5,1.5,0,0,0-1-1.4L9.6,23.4a1.33,1.33,0,0,0-1.8,1.1,24.18,24.18,0,0,0-.4,4.7,24.22,24.22,0,0,0,.7,4.7,1.46,1.46,0,0,0,1.9,1l11.4-4.8a1.57,1.57,0,0,0,.9-1.4Z"/><path class="cls-2" d="M34.4,24.2l11.1-5.5a1.41,1.41,0,0,0,.5-2.1,21.86,21.86,0,0,0-6.8-6.4,1.42,1.42,0,0,0-2,.7L32.4,22.3a1.38,1.38,0,0,0,.4,1.6h0A1.57,1.57,0,0,0,34.4,24.2Z"/><path class="cls-2" d="M28.3,22.2h0a1.5,1.5,0,0,0,1.4-1L33.6,9.5a1.33,1.33,0,0,0-1.1-1.8,24.18,24.18,0,0,0-4.7-.4,24.22,24.22,0,0,0-4.7.7,1.46,1.46,0,0,0-1,1.9l4.7,11.4a1.65,1.65,0,0,0,1.5.9Z"/><path class="cls-2" d="M47.1,22.1,35.7,26.8a1.42,1.42,0,0,0-.9,1.4h0a1.38,1.38,0,0,0,1,1.3l11.7,3.9a1.33,1.33,0,0,0,1.8-1.1,24.18,24.18,0,0,0,.4-4.7,24.22,24.22,0,0,0-.7-4.7A1.44,1.44,0,0,0,47.1,22.1Z"/><path class="cls-2" d="M32.8,34.4l5.5,11.1a1.41,1.41,0,0,0,2.1.5,21.86,21.86,0,0,0,6.4-6.8,1.42,1.42,0,0,0-.7-2L34.7,32.4a1.38,1.38,0,0,0-1.6.4h0A1.35,1.35,0,0,0,32.8,34.4Z"/><path class="cls-2" d="M22.6,32.8,11.5,38.3a1.41,1.41,0,0,0-.5,2.1,21.86,21.86,0,0,0,6.8,6.4,1.42,1.42,0,0,0,2-.7l4.8-11.4a1.38,1.38,0,0,0-.4-1.6h0A1.25,1.25,0,0,0,22.6,32.8Z"/><path class="cls-2" d="M28.7,34.7h0a1.5,1.5,0,0,0-1.4,1L23.4,47.4a1.33,1.33,0,0,0,1.1,1.8,24.18,24.18,0,0,0,4.7.4,24.22,24.22,0,0,0,4.7-.7,1.46,1.46,0,0,0,1-1.9L30.2,35.6a1.65,1.65,0,0,0-1.5-.9Z"/><polygon class="cls-3" points="99.8 119.8 88.8 119.8 28.2 31.2 160.5 31.2 99.8 119.8"/><polygon class="cls-4" points="99.8 119.8 94.3 119.8 94.3 31.2 160.5 31.2 99.8 119.8"/><rect class="cls-3" x="88.8" y="119.8" width="10.9" height="80.7"/><rect class="cls-4" x="94.3" y="119.8" width="5.5" height="80.7"/><polygon class="cls-5" points="52.8 67.2 88.8 119.8 99.8 119.8 135.8 67.2 52.8 67.2"/><polygon class="cls-6" points="94.3 67.2 94.3 119.8 99.8 119.8 135.8 67.2 94.3 67.2"/><polygon class="cls-5" points="124.3 214.3 64.4 214.3 88.8 200.5 99.8 200.5 124.3 214.3"/><polygon class="cls-6" points="124.3 214.3 94.3 214.3 94.3 200.5 99.8 200.5 124.3 214.3"/></g></g></svg>