<svg xmlns="http://www.w3.org/2000/svg" viewBox="0 0 108 223.8"><defs><style>.cls-1{fill:#ffd679;}.cls-2{fill:#fdc374;}.cls-3{fill:#808285;}.cls-4{fill:#f26d64;}.cls-5{fill:#eb5d5e;}</style></defs><g id="Layer_2" data-name="Layer 2"><g id="Layer_1-2" data-name="Layer 1"><polygon class="cls-1" points="68.2 170.7 39.9 170.7 54 148.4 68.2 170.7"/><polygon class="cls-2" points="68.2 170.7 54.2 170.7 54 148.4 68.2 170.7"/><path class="cls-3" d="M58.7,223.8h-.1V222c.1,0,11.4.1,14.8-6.6,2.7-5.2.1-13.1-7.6-23.5-23.8-32.2-14.4-43.6-14-44.1l1.3,1.2-.7-.6.7.6s-2.2,2.7-1.6,9.1c.6,6,3.7,16.6,15.7,32.8,8.2,11,10.8,19.6,7.8,25.4C71.3,223.6,60.1,223.8,58.7,223.8Z"/><path class="cls-4" d="M108,63.7c0,35.2-24.2,89.5-54,89.5S0,98.9,0,63.7,24.2,0,54,0,108,28.5,108,63.7Z"/><path class="cls-5" d="M54,0V153.2c29.8,0,54-54.3,54-89.5S83.8,0,54,0Z"/></g></g></svg>