<svg height="512pt" viewBox="0 0 512 512" width="512pt" xmlns="http://www.w3.org/2000/svg"><path d="m384 32v448c0 17.679688-14.320312 32-32 32h-320c-17.679688 0-32-14.320312-32-32v-448c0-17.679688 14.320312-32 32-32h320c17.679688 0 32 14.320312 32 32zm0 0" fill="#addb31"/><path d="m352 512c17.679688 0 32-14.320312 32-32v-295.855469c-12.222656 5.535157-23.230469 13.710938-32 24.09375-17.105469-20.269531-42.65625-32.238281-69.328125-32.238281-46.382813 0-84.6875 35.023438-89.984375 80h-32.6875v160h32v96zm0 0" fill="#6fbb2e"/><path d="m421.328125 208c-18.367187 0-35.921875 8.785156-46.945313 23.488281l-22.351562 39.824219-22.429688-39.824219c-11.007812-14.703125-28.5625-23.488281-46.929687-23.488281-32.351563 0-58.671875 26.320312-58.671875 58.671875v53.328125h256v-53.328125c0-32.351563-26.320312-58.671875-58.671875-58.671875zm-165.328125 80v-21.328125c0-14.703125 11.96875-26.671875 26.671875-26.671875 8.03125 0 15.710937 3.679688 20.734375 9.921875l21.3125 38.078125zm192 0h-68.71875l21.3125-38.078125c5.007812-6.242187 12.703125-9.921875 20.734375-9.921875 14.703125 0 26.671875 11.96875 26.671875 26.671875zm0 0" fill="#fdd835"/><path d="m224 352h256v160h-256zm0 0" fill="#9b7cab"/><path d="m304 352h96v160h-96zm0 0" fill="#fdd835"/><path d="m224 352h256v32h-256zm0 0" fill="#88679b"/><path d="m304 352h96v32h-96zm0 0" fill="#fbc02d"/><g fill="#fff"><path d="m64 64h96v96h-96zm0 0"/><path d="m64 192h96v96h-96zm0 0"/><path d="m64 320h96v96h-96zm0 0"/><path d="m192 96h128v32h-128zm0 0"/></g><path d="m480 266.71875v53.28125h-256v-53.28125c0-3.679688.320312-7.199219.960938-10.71875h33.277343c-1.4375 3.199219-2.238281 6.878906-2.238281 10.71875v21.28125h68.640625l-17.921875-32h36.640625l8.640625 15.359375 8.640625-15.359375h36.640625l-17.921875 32h68.640625v-21.28125c0-3.839844-.800781-7.519531-2.238281-10.71875h33.277343c.640626 3.519531.960938 7.039062.960938 10.71875zm0 0" fill="#fbc02d"/><path d="m192 288h320v96h-320zm0 0" fill="#ff668b"/><path d="m304 320h32v32h-32zm0 0" fill="#fff"/><path d="m368 320h32v32h-32zm0 0" fill="#fff"/></svg>