<svg xmlns="http://www.w3.org/2000/svg" viewBox="0 0 157.01 97.8">
<defs>
<style>.cls-1{fill:#689e61;}.cls-2{fill:#f0c419;}.cls-3{fill:#f29c1f;}.cls-4{fill:#6fc564;}.cls-5{fill:#f0c519;}.cls-6{fill:#f3d55b;}</style>
</defs>
<g id="Layer_2" data-name="Layer 2"><g id="Sign-in-present">
<path class="cls-1" d="M124.19,20.93,140.65,9.54v16.3H157s-16.36,26.05-39.26,26.08L78.5,58.44,39.25,51.92C16.35,51.94,0,25.84,0,25.84l16.35,0V9.54L32.15,21,78.5,35.62Z"/>
<path class="cls-2" d="M81.77,26.05S77,1.5,53.84,0A6.91,6.91,0,0,0,50,.92,36.28,36.28,0,0,0,33.22,20.4a10.43,10.43,0,0,0,1.08,8.77c5.27,8.33,19.62,26.37,39.1,13.69Z"/>
<path class="cls-3" d="M63.33,37A31,31,0,0,1,49.1,17.51c-.2-.75.68-1.4,1.6-1.17,9.88,2.25,15,10.79,17.14,15.29Z"/>
<path class="cls-2" d="M78.5,32.61S83.19,8.06,106.39,6.53a6.83,6.83,0,0,1,3.8.91,36.24,36.24,0,0,1,16.86,19.42A10.44,10.44,0,0,1,126,35.62c-5.39,8.54-20.31,27.29-40.56,12.71Z"/>
<path class="cls-3" d="M89.17,31.66v0a26.59,26.59,0,0,1,17.14-15.29c.91-.19,1.79.42,1.6,1.17a31.27,31.27,0,0,1-14.2,19.6Z"/>
<path class="cls-4" d="M134.11,75a3.27,3.27,0,0,0,3.27-3.26V61.94a13.06,13.06,0,0,0-13.09-13H32.71a13,13,0,0,0-13.08,13v9.78A3.26,3.26,0,0,0,22.9,75Z"/>
<path class="cls-5" d="M98.13,48.91H58.88V97.8L78.5,81.5,98.13,97.8Z"/>
<path class="cls-6" d="M75.23,29.35h6.54a13.07,13.07,0,0,1,13.09,13v6.52H62.15V42.39A13.06,13.06,0,0,1,75.23,29.35Z"/></g></g></svg>