<svg xmlns="http://www.w3.org/2000/svg" xmlns:xlink="http://www.w3.org/1999/xlink" viewBox="0 0 163.46 82.41"><defs> 
<style>.cls-1{fill:#6fc564;}.cls-2{fill:#689e61;}.cls-3{fill:url(#linear-gradient);}.cls-4{fill:#423e4f;}</style>
<linearGradient id="linear-gradient" x1="36.64" y1="681.06" x2="136.39" y2="610.42" gradientTransform="matrix(1, 0, 0, -1, -7.16, 689.49)" gradientUnits="userSpaceOnUse"><stop offset="0" stop-color="#689e61" stop-opacity="0.51"/><stop offset="1" stop-color="#3e5f3a" stop-opacity="0.51"/></linearGradient>
</defs><g id="Layer_2" data-name="Layer 2"><g id="Sign-in-present"><path class="cls-1" d="M162.09,16.93,139.21.61a3.26,3.26,0,0,0-1.9-.61H26.15a3.26,3.26,0,0,0-1.9.61L1.37,16.93a3.26,3.26,0,1,0,3.8,5.31l21-15V75.06a6.53,6.53,0,0,0,6.54,6.53h98.08a6.53,6.53,0,0,0,6.54-6.53V7.28l21,15a3.26,3.26,0,1,0,3.79-5.31Z"/><path class="cls-2" d="M37.47,72.55c-1.81,0-3.27-2.07-3.27-4.62V58.69c0-2.55,1.46-4.62,3.27-4.62s3.27,2.07,3.27,4.62v9.24C40.74,70.48,39.28,72.55,37.47,72.55Z"/><path class="cls-3" d="M130.16,82.23c-10.06.66-42.82-.78-42.87-.15L25.62,36.94c0-1.8-.24-35.63,0-35.86s37-.61,36.82-.57l74.2,53.62C135.41,79.32,140.21,81.57,130.16,82.23Z"/><path class="cls-2" d="M122.51,72.55c-1.8,0-3.27-2.06-3.27-4.6V58.76c0-2.54,1.47-4.6,3.27-4.6s3.28,2.06,3.28,4.6V68C125.79,70.49,124.32,72.55,122.51,72.55Z"/><path class="cls-2" d="M122.51,37.87a3,3,0,0,1-3.27-2.76V7.55a3.33,3.33,0,0,1,6.55,0V35.11A3.05,3.05,0,0,1,122.51,37.87Z"/><path class="cls-2" d="M37,39.11a3.05,3.05,0,0,1-3.28-2.76V8.79A3.05,3.05,0,0,1,37,6,3,3,0,0,1,40.3,8.79V36.35A3,3,0,0,1,37,39.11Z"/><path class="cls-4" d="M56.91,51.4a3.8,3.8,0,0,1-3.61-4V42.15a3.63,3.63,0,1,1,7.22,0v5.27A3.81,3.81,0,0,1,56.91,51.4Z"/><path class="cls-4" d="M56.91,51.4a3.8,3.8,0,0,1-3.61-4V42.15a3.63,3.63,0,1,1,7.22,0v5.27A3.81,3.81,0,0,1,56.91,51.4Z"/><path class="cls-4" d="M106.58,51.4a3.81,3.81,0,0,1-3.61-4V42.15a3.63,3.63,0,1,1,7.22,0v5.27A3.81,3.81,0,0,1,106.58,51.4Z"/><path class="cls-4" d="M81.74,54.54a11.85,11.85,0,0,1-9.27-4.66,4.28,4.28,0,0,1,.35-5.62,3.38,3.38,0,0,1,5.1.38,4.76,4.76,0,0,0,7.65,0,3.37,3.37,0,0,1,5.09-.38A4.27,4.27,0,0,1,91,49.88a11.82,11.82,0,0,1-9.27,4.66Z"/></g></g></svg>