<?xml version="1.0" encoding="iso-8859-1"?>
<!-- Generator: Adobe Illustrator 19.0.0, SVG Export Plug-In . SVG Version: 6.00 Build 0)  -->
<svg version="1.1" id="Capa_1" xmlns="http://www.w3.org/2000/svg" xmlns:xlink="http://www.w3.org/1999/xlink" x="0px" y="0px"
	 viewBox="0 0 512.001 512.001" style="enable-background:new 0 0 512.001 512.001;" xml:space="preserve">
<path style="fill:#92D2E7;" d="M145.403,253.864c18.365-26.76,160.133-133.663,331.198-153.743
	c12.54-1.472,20.647,12.922,12.927,22.913l-12.052,15.597c-8.72,11.284-5.756,27.635,6.37,35.14l15.22,9.421
	c14.996,9.282,17.388,30.134,4.883,42.57l-17.969,17.871c-8.141,8.097-8.393,21.191-0.57,29.595l14.5,15.577
	c10.475,11.253,0.224,29.269-14.809,26.051c-85.719-18.349-234.446-33.733-325.781,5.388L145.403,253.864z"/>
<path style="opacity:0.1;enable-background:new    ;" d="M277.135,223.225c4.635-14.634-6.87-29.36-22.19-28.402l-39.507,2.469
	c-37.894,24.355-63.008,46.333-70.036,56.573l13.916,66.38c29.596-12.677,65.222-19.626,102.774-22.61l-1.021-2.583
	c-2.402-6.073-2.636-12.789-0.664-19.015L277.135,223.225z"/>
<g style="opacity:0.1;">
	<path d="M216.027,277.021c-3.064,0-5.94-1.891-7.049-4.936c-1.417-3.893,0.591-8.196,4.482-9.613
		c47.591-17.321,145.51-28.808,200.434-17.654c4.06,0.824,6.682,4.782,5.858,8.842c-0.824,4.061-4.78,6.684-8.842,5.857
		c-51.728-10.502-147.504,0.739-192.318,17.051C217.745,276.874,216.878,277.021,216.027,277.021z"/>
	<path d="M205.089,246.954c-2.224,0-4.426-0.984-5.905-2.87c-2.557-3.259-1.988-7.973,1.27-10.53
		c13.157-10.324,95.906-55.063,184.428-67.345c4.095-0.57,7.892,2.294,8.46,6.397c0.569,4.104-2.295,7.891-6.397,8.46
		c-85.616,11.88-166.383,55.775-177.23,64.288C208.341,246.432,206.709,246.954,205.089,246.954z"/>
</g>
<path style="fill:#92D2E7;" d="M163.464,399.829l-42.7,35.294c-11.832,9.78-29.795,4.629-34.647-9.935L68.608,372.63
	c-2.064-6.196-6.201-11.491-11.714-14.993l-46.761-29.704c-12.957-8.231-13.61-26.906-1.258-36.021l44.575-32.893
	c5.255-3.878,9.013-9.448,10.639-15.773l13.8-53.652c3.824-14.867,21.384-21.258,33.869-12.327l45.058,32.229
	c5.312,3.799,11.771,5.652,18.289,5.244l55.29-3.455c15.321-0.957,26.826,13.768,22.19,28.402l-16.728,52.812
	c-1.972,6.226-1.738,12.941,0.664,19.015l20.371,51.516c5.645,14.275-4.805,29.767-20.155,29.881l-55.396,0.41
	C174.812,393.37,168.498,395.668,163.464,399.829z"/>
<path style="opacity:0.4;fill:#FFFFFF;enable-background:new    ;" d="M163.464,399.829l-42.7,35.294
	c-11.832,9.78-29.795,4.629-34.647-9.935L68.608,372.63c-2.064-6.196-6.201-11.491-11.714-14.993l-46.761-29.704
	c-12.957-8.231-13.61-26.906-1.258-36.021l44.575-32.893c5.255-3.878,9.013-9.448,10.639-15.773l13.8-53.652
	c3.824-14.867,21.384-21.258,33.869-12.327l45.058,32.229c5.312,3.799,11.771,5.652,18.289,5.244l55.29-3.455
	c15.321-0.957,26.826,13.768,22.19,28.402l-16.728,52.812c-1.972,6.226-1.738,12.941,0.664,19.015l20.371,51.516
	c5.645,14.275-4.805,29.767-20.155,29.881l-55.396,0.41C174.812,393.37,168.498,395.668,163.464,399.829z"/>
<g>
	<path style="fill:#485458;" d="M84.896,313.777c-3.064,0-5.94-1.891-7.049-4.938l-2.915-8.009
		c-1.416-3.893,0.591-8.196,4.483-9.613s8.196,0.59,9.612,4.483l2.915,8.009c1.416,3.893-0.591,8.196-4.483,9.613
		C86.614,313.631,85.747,313.777,84.896,313.777z"/>
	<path style="fill:#485458;" d="M181.395,278.654c-3.064,0-5.94-1.891-7.049-4.936l-2.915-8.009
		c-1.417-3.893,0.59-8.196,4.482-9.613c3.893-1.415,8.196,0.59,9.613,4.482l2.915,8.009c1.417,3.893-0.59,8.196-4.482,9.613
		C183.113,278.508,182.247,278.654,181.395,278.654z"/>
	<path style="fill:#485458;" d="M129.253,303.445c-4.263,0-8.508-1.071-12.326-3.182c-3.626-2.003-4.94-6.566-2.938-10.191
		c2.003-3.625,6.566-4.942,10.191-2.938c2.652,1.466,5.801,1.712,8.639,0.682c2.836-1.032,5.088-3.246,6.178-6.074
		c1.488-3.864,5.828-5.791,9.695-4.301c3.865,1.489,5.791,5.83,4.301,9.695c-2.649,6.875-8.133,12.26-15.045,14.775
		C135.131,302.938,132.187,303.445,129.253,303.445z"/>
</g>
<g>
	<path style="fill:#92D2E7;" d="M187.11,173.301c-1.92,0-3.839-0.732-5.304-2.197l-27.108-27.109
		c-2.929-2.929-2.929-7.677,0.001-10.606c2.928-2.929,7.677-2.928,10.607,0.001l27.108,27.109c2.929,2.929,2.929,7.677-0.001,10.607
		C190.949,172.568,189.029,173.301,187.11,173.301z"/>
	<path style="fill:#92D2E7;" d="M160.002,173.301c-1.919,0-3.839-0.732-5.303-2.196c-2.93-2.93-2.93-7.678-0.001-10.607
		l27.108-27.109c2.93-2.93,7.679-2.929,10.606-0.001c2.93,2.93,2.93,7.678,0.001,10.606l-27.108,27.109
		C163.841,172.568,161.921,173.301,160.002,173.301z"/>
	<path style="fill:#92D2E7;" d="M327.769,113.968c-1.92,0-3.839-0.732-5.304-2.197l-27.108-27.109
		c-2.929-2.929-2.929-7.677,0.001-10.606c2.929-2.928,7.678-2.929,10.607,0.001l27.108,27.109c2.929,2.929,2.929,7.677-0.001,10.606
		C331.607,113.235,329.687,113.968,327.769,113.968z"/>
	<path style="fill:#92D2E7;" d="M300.66,113.968c-1.919,0-3.839-0.732-5.303-2.196c-2.93-2.93-2.93-7.678-0.001-10.606
		l27.108-27.109c2.93-2.93,7.679-2.929,10.606-0.001c2.93,2.93,2.93,7.678,0.001,10.606l-27.108,27.109
		C304.499,113.235,302.579,113.968,300.66,113.968z"/>
	<path style="fill:#92D2E7;" d="M438.512,390.649c-1.919,0-3.839-0.732-5.303-2.196L406.1,361.345
		c-2.93-2.929-2.93-7.678-0.001-10.606c2.93-2.93,7.679-2.929,10.607-0.001l27.109,27.108c2.93,2.929,2.93,7.678,0.001,10.606
		C442.351,389.917,440.431,390.649,438.512,390.649z"/>
	<path style="fill:#92D2E7;" d="M411.402,390.649c-1.92,0-3.839-0.732-5.304-2.197c-2.929-2.929-2.929-7.678,0.001-10.606
		l27.109-27.108c2.929-2.928,7.678-2.929,10.606,0.001c2.929,2.929,2.929,7.678-0.001,10.606l-27.109,27.108
		C415.241,389.917,413.321,390.649,411.402,390.649z"/>
	<path style="fill:#92D2E7;" d="M327.769,369.813c-1.919,0-3.839-0.732-5.304-2.196l-27.108-27.108
		c-2.929-2.93-2.929-7.678,0-10.607c2.93-2.928,7.678-2.928,10.607,0l27.108,27.108c2.929,2.93,2.929,7.678,0,10.607
		C331.607,369.08,329.687,369.813,327.769,369.813z"/>
	<path style="fill:#92D2E7;" d="M300.66,369.813c-1.919,0-3.839-0.732-5.304-2.196c-2.929-2.93-2.929-7.678,0-10.607l27.108-27.108
		c2.93-2.928,7.678-2.928,10.607,0c2.929,2.93,2.929,7.678,0,10.607l-27.108,27.108C304.499,369.08,302.579,369.813,300.66,369.813z
		"/>
</g>
<g>
</g>
<g>
</g>
<g>
</g>
<g>
</g>
<g>
</g>
<g>
</g>
<g>
</g>
<g>
</g>
<g>
</g>
<g>
</g>
<g>
</g>
<g>
</g>
<g>
</g>
<g>
</g>
<g>
</g>
</svg>
