<svg xmlns="http://www.w3.org/2000/svg" xmlns:xlink="http://www.w3.org/1999/xlink" viewBox="0 0 153.85 76.88"><defs><style>.cls-1{fill:#f0c519;}.cls-2{fill:url(#linear-gradient);}.cls-3{fill:#ffe26f;}.cls-4{fill:#423e4f;}</style><linearGradient id="linear-gradient" x1="-161.79" y1="430.14" x2="-161.79" y2="405.01" gradientTransform="matrix(1.87, -2.43, -5.94, -4.52, 2854.89, 1531.66)" gradientUnits="userSpaceOnUse"><stop offset="0" stop-color="#f0c519"/><stop offset="1" stop-color="#ffe26f"/></linearGradient></defs><g id="Layer_2" data-name="Layer 2"><g id="register-present"><path id="er3eff4ewmej4" class="cls-1" d="M152.56,16.18,131,.88a3.1,3.1,0,0,0-1.79-.57H24.62a3.1,3.1,0,0,0-1.79.57L1.29,16.18a3.06,3.06,0,0,0-.72,4.27,3.1,3.1,0,0,0,4.3.71l19.75-14V70.68a6.13,6.13,0,0,0,6.15,6.12h92.31a6.13,6.13,0,0,0,6.15-6.12V7.13l19.75,14a3.1,3.1,0,0,0,4.3-.71A3.06,3.06,0,0,0,152.56,16.18Z"/><path id="er3eff4ewmej15" class="cls-2" d="M123,76.71c-9.46.62-40.28-.74-40.32-.14l-58-42.37c0-1.69-.23-33.44,0-33.66S59.55,0,59.35,0l69.8,50.33C128,74,132.48,76.09,123,76.71Z"/><path id="er3eff4ewmej14" class="cls-3" d="M35.83,67.63c-1.7,0-3.08-1.95-3.08-4.34V54.61c0-2.39,1.38-4.34,3.08-4.34s3.08,1.95,3.08,4.34v8.68C38.91,65.68,37.53,67.63,35.83,67.63Z"/><path id="er3eff4ewmej16" class="cls-3" d="M115.83,67.63c-1.7,0-3.08-1.94-3.08-4.32V54.68c0-2.39,1.38-4.32,3.08-4.32s3.08,1.93,3.08,4.32v8.63C118.91,65.69,117.53,67.63,115.83,67.63Z"/><path id="er3eff4ewmej17" class="cls-3" d="M115.83,35.07a2.87,2.87,0,0,1-3.08-2.58V6.62a3.13,3.13,0,0,1,6.16,0V32.49A2.87,2.87,0,0,1,115.83,35.07Z"/><path id="path-1" class="cls-3" d="M35.41,36.23a2.86,2.86,0,0,1-3.08-2.58V7.78a2.87,2.87,0,0,1,3.08-2.59,2.87,2.87,0,0,1,3.08,2.59V33.65A2.86,2.86,0,0,1,35.41,36.23Z"/><path class="cls-4" d="M51.91,49a3.81,3.81,0,0,1-3.61-4V39.73a3.63,3.63,0,1,1,7.22,0V45A3.82,3.82,0,0,1,51.91,49Z"/><path class="cls-4" d="M51.91,49a3.81,3.81,0,0,1-3.61-4V39.73a3.63,3.63,0,1,1,7.22,0V45A3.82,3.82,0,0,1,51.91,49Z"/><path class="cls-4" d="M101.56,49A3.81,3.81,0,0,1,98,45V39.73a3.63,3.63,0,1,1,7.22,0V45A3.82,3.82,0,0,1,101.56,49Z"/><path class="cls-4" d="M76.73,52.13a11.8,11.8,0,0,1-9.26-4.67,4.28,4.28,0,0,1,.35-5.63,3.38,3.38,0,0,1,5.09.39,4.76,4.76,0,0,0,7.65,0,3.38,3.38,0,0,1,5.09-.39A4.29,4.29,0,0,1,86,47.46a11.83,11.83,0,0,1-9.27,4.67Z"/></g></g></svg>