<svg xmlns="http://www.w3.org/2000/svg" viewBox="0 0 47.7 209.4"><defs><style>.cls-1{fill:#d7df23;}.cls-2{fill:#bfd730;}.cls-3{fill:#ffdd7b;}.cls-4{fill:#fdc174;}.cls-5{fill:#ffea7e;}.cls-6{fill:#ffd679;}.cls-7{fill:#faaa6d;}.cls-8{fill:#f79668;}</style></defs><g id="Layer_2" data-name="Layer 2"><g id="Layer_1-2" data-name="Layer 1"><path class="cls-1" d="M32.6,78.3V3.9H15.1V78.3a11.75,11.75,0,0,1-4.6,9.3h0A26.86,26.86,0,0,0,0,108.9V209.4H47.7V108.9A27,27,0,0,0,37.2,87.6h0A11.75,11.75,0,0,1,32.6,78.3Z"/><path class="cls-2" d="M37.2,87.6a11.6,11.6,0,0,1-4.6-9.3V3.9H23.8V209.4H47.7V108.9A26.86,26.86,0,0,0,37.2,87.6Z"/><rect class="cls-3" x="0.1" y="145.1" width="47.6" height="11.4"/><rect class="cls-4" x="23.9" y="145.1" width="23.8" height="11.4"/><rect class="cls-5" x="8.5" y="115.3" width="30.7" height="64.5"/><rect class="cls-6" x="23.9" y="115.3" width="15.3" height="64.5"/><rect class="cls-5" x="15.1" y="29.2" width="17.5" height="8.3"/><rect class="cls-3" x="15.1" y="29.2" width="17.5" height="8.3"/><rect class="cls-4" x="23.8" y="29.2" width="8.8" height="8.3"/><ellipse class="cls-5" cx="23.9" cy="34.1" rx="4.7" ry="10.2"/><rect class="cls-7" x="13.6" width="20.6" height="11.4"/><rect class="cls-8" x="23.9" width="10.3" height="11.4"/><path class="cls-6" d="M23.8,24V44.5c2.6,0,4.7-4.6,4.7-10.2C28.5,28.5,26.4,24,23.8,24Z"/></g></g></svg>