<?xml version="1.0" encoding="utf-8"?>
<!-- Generator: Adobe Illustrator 19.2.1, SVG Export Plug-In . SVG Version: 6.00 Build 0)  -->
<svg version="1.1" id="Layer_1" xmlns="http://www.w3.org/2000/svg" xmlns:xlink="http://www.w3.org/1999/xlink" x="0px" y="0px"
	 width="1400px" height="980px" viewBox="0 0 1400 980" enable-background="new 0 0 1400 980" xml:space="preserve">
<g>
	<path fill="#BFD730" d="M1055.7,228.2H940.2v-13.7h115.5c14.9,0,27-12.1,27-27c0-14.9-12.1-27-27-27h-61.8
		c-9.2,0-16.7,7.5-16.7,16.7c0,9.2,7.5,16.7,16.7,16.7h55.8c3.1,0,5.7-2.5,5.7-5.7c0-3.1-2.5-5.7-5.7-5.7h-41.3l-4.2-13.7h45.5
		c10.6,0,19.3,8.7,19.3,19.3c0,10.6-8.7,19.3-19.3,19.3h-55.8c-16.8,0-30.4-13.6-30.4-30.4s13.6-30.4,30.4-30.4h61.8
		c22.4,0,40.7,18.3,40.7,40.7S1078.1,228.2,1055.7,228.2z"/>
	<path fill="#D7DF23" d="M1096.2,184.1c-1.8-20.8-19.3-37.2-40.5-37.2h-61.8c-15.6,0-28.5,11.8-30.2,26.9
		c1.7,15.1,14.6,26.9,30.2,26.9h55.8c9.5,0,17.4-6.8,19-15.8c-1.6-9-9.5-15.8-19-15.8h-43.3l2.1,6.7h41.3c3.1,0,5.7,2.5,5.7,5.7
		c0,1.3-0.5,2.5-1.2,3.5c0.7,1,1.2,2.2,1.2,3.5c0,3.1-2.5,5.7-5.7,5.7h-55.8c-9.2,0-16.7-7.5-16.7-16.7c0-1.2,0.1-2.3,0.4-3.5
		c-0.2-1.1-0.4-2.3-0.4-3.5c0-9.2,7.5-16.7,16.7-16.7h61.8c14.9,0,27,12.1,27,27c0,1.2-0.1,2.3-0.2,3.5c0.1,1.1,0.2,2.3,0.2,3.5
		c0,14.9-12.1,27-27,27H940.2v6.7h115.5C1076.9,221.3,1094.4,204.9,1096.2,184.1z"/>
	<polygon fill="#FFD679" points="961.7,232.7 900.4,232.7 900.4,217.6 923.1,209.9 961.7,209.9 	"/>
	<polygon fill="#FFEA7E" points="900.4,217.6 900.4,221.3 961.7,221.3 961.7,209.9 923.1,209.9 	"/>
</g>
<g>
	<g>
		
			<ellipse transform="matrix(0.9994 -3.456382e-002 3.456382e-002 0.9994 -23.9739 11.8968)" fill="#F179AF" cx="332.1" cy="699.4" rx="28.5" ry="28.5"/>
		<g>
			<path fill="#FDEBF3" d="M327.8,693.5l-5.5-11.1c-0.4-0.8-1.4-1-2.1-0.5c-2.6,1.8-4.8,4.1-6.4,6.8c-0.4,0.7-0.1,1.7,0.7,2
				l11.4,4.8c0.6,0.2,1.2,0.1,1.6-0.4c0,0,0,0,0,0C328,694.6,328.1,694,327.8,693.5z"/>
			<path fill="#FDEBF3" d="M325.9,699.6C325.9,699.6,325.9,699.6,325.9,699.6c0-0.6-0.4-1.2-1-1.4l-11.7-3.9
				c-0.8-0.3-1.7,0.2-1.8,1.1c-0.3,1.5-0.4,3.1-0.4,4.7c0.1,1.6,0.3,3.2,0.7,4.7c0.2,0.8,1.1,1.3,1.9,1L325,701
				C325.5,700.8,325.9,700.2,325.9,699.6C325.9,699.6,325.9,699.6,325.9,699.6z"/>
			<path fill="#FDEBF3" d="M338,695.1l11.1-5.5c0.8-0.4,1-1.4,0.5-2.1c-1.8-2.6-4.1-4.8-6.8-6.4c-0.7-0.4-1.7-0.1-2,0.7l-4.8,11.4
				c-0.2,0.6-0.1,1.2,0.4,1.6c0,0,0,0,0,0C336.8,695.2,337.5,695.3,338,695.1z"/>
			<path fill="#FDEBF3" d="M331.9,693.1C331.9,693.1,331.9,693.1,331.9,693.1c0.6,0,1.2-0.4,1.4-1l3.9-11.7c0.3-0.8-0.2-1.7-1.1-1.8
				c-1.5-0.3-3.1-0.4-4.7-0.4c-1.6,0.1-3.2,0.3-4.7,0.7c-0.8,0.2-1.3,1.1-1,1.9l4.7,11.4C330.7,692.8,331.3,693.1,331.9,693.1
				C331.9,693.1,331.9,693.1,331.9,693.1z"/>
			<path fill="#FDEBF3" d="M350.7,693l-11.4,4.7c-0.6,0.2-0.9,0.8-0.9,1.4c0,0,0,0,0,0c0,0,0,0,0,0c0,0.6,0.4,1.1,1,1.3l11.7,3.9
				c0.8,0.3,1.7-0.2,1.8-1.1c0.3-1.5,0.4-3.1,0.4-4.7c-0.1-1.6-0.3-3.2-0.7-4.7C352.4,693.1,351.5,692.7,350.7,693z"/>
			<path fill="#FDEBF3" d="M336.4,705.3l5.5,11.1c0.4,0.8,1.4,1,2.1,0.5c2.6-1.8,4.8-4.1,6.4-6.8c0.4-0.7,0.1-1.7-0.7-2l-11.4-4.8
				c-0.6-0.2-1.2-0.1-1.6,0.4c0,0,0,0,0,0C336.3,704.1,336.1,704.7,336.4,705.3z"/>
			<path fill="#FDEBF3" d="M326.2,703.7l-11.1,5.5c-0.8,0.4-1,1.4-0.5,2.1c1.8,2.6,4.1,4.8,6.8,6.4c0.7,0.4,1.7,0.1,2-0.7l4.8-11.4
				c0.2-0.6,0.1-1.2-0.4-1.6c0,0,0,0,0,0C327.4,703.5,326.7,703.4,326.2,703.7z"/>
			<path fill="#FDEBF3" d="M332.3,705.6C332.3,705.6,332.3,705.6,332.3,705.6c-0.6,0-1.2,0.4-1.4,1l-3.9,11.7
				c-0.3,0.8,0.2,1.7,1.1,1.8c1.5,0.3,3.1,0.4,4.7,0.4c1.6-0.1,3.2-0.3,4.7-0.7c0.8-0.2,1.3-1.1,1-1.9l-4.7-11.4
				C333.5,705.9,332.9,705.6,332.3,705.6C332.3,705.6,332.3,705.6,332.3,705.6z"/>
		</g>
	</g>
	<polygon fill="#FFD679" points="403.4,790.7 392.4,790.7 331.8,702.1 464.1,702.1 	"/>
	<polygon fill="#FDC374" points="403.4,790.7 397.9,790.7 397.9,702.1 464.1,702.1 	"/>
	<rect x="392.4" y="790.7" fill="#FFD679" width="10.9" height="80.7"/>
	<rect x="397.9" y="790.7" fill="#FDC374" width="5.5" height="80.7"/>
	<polygon fill="#FAAA6D" points="356.4,738.1 392.4,790.7 403.4,790.7 439.4,738.1 	"/>
	<polygon fill="#F8A16B" points="397.9,738.1 397.9,790.7 403.4,790.7 439.4,738.1 	"/>
	<polygon fill="#FAAA6D" points="427.9,885.2 368,885.2 392.4,871.4 403.4,871.4 	"/>
	<polygon fill="#F8A16B" points="427.9,885.2 397.9,885.2 397.9,871.4 403.4,871.4 	"/>
</g>
<g>
	<rect x="625.8" y="471.4" fill="#FAAA6D" width="143" height="90.8"/>
	<rect x="697.3" y="471.4" fill="#F8A16B" width="71.5" height="90.8"/>
	<rect x="625.8" y="471.4" fill="#FFD679" width="143" height="23.1"/>
	<rect x="697.3" y="471.4" fill="#FDC374" width="71.5" height="23.1"/>
	<rect x="625.8" y="539.1" fill="#FFD679" width="143" height="23.1"/>
	<rect x="697.3" y="539.1" fill="#FDC374" width="71.5" height="23.1"/>
	<g>
		<rect x="642.8" y="426.7" fill="#F179AF" width="9" height="44.8"/>
		<rect x="647.3" y="426.7" fill="#EF60A3" width="4.5" height="44.8"/>
		<rect x="676.1" y="438" fill="#F179AF" width="9" height="33.5"/>
		<rect x="680.6" y="438" fill="#EF60A3" width="4.5" height="33.5"/>
		<rect x="709.5" y="438" fill="#F179AF" width="9" height="33.5"/>
		<rect x="713.9" y="438" fill="#EF60A3" width="4.5" height="33.5"/>
		<rect x="742.8" y="426.7" fill="#F179AF" width="9" height="44.8"/>
		<rect x="747.3" y="426.7" fill="#EF60A3" width="4.5" height="44.8"/>
	</g>
	<g>
		<path fill="#FDEBF3" d="M768.8,511.2c-0.7,0.3-1.2,0.7-1.8,1c-1.8,1-2.8,1.6-5.3,1.6c-2.6,0-3.5-0.6-5.3-1.6
			c-2.2-1.3-5.3-3.1-10.8-3.1c-5.5,0-8.5,1.8-10.8,3.1c-1.8,1-2.8,1.6-5.3,1.6c-2.6,0-3.5-0.6-5.3-1.6c-2.2-1.3-5.3-3.1-10.8-3.1
			c-5.5,0-8.5,1.8-10.8,3.1c-1.8,1-2.8,1.6-5.3,1.6c-2.6,0-3.5-0.6-5.3-1.6c-2.2-1.3-5.3-3.1-10.8-3.1c-5.5,0-8.5,1.8-10.8,3.1
			c-1.8,1-2.8,1.6-5.3,1.6c-2.6,0-3.5-0.6-5.3-1.6c-2.2-1.3-5.3-3.1-10.8-3.1c-5.5,0-8.5,1.8-10.8,3.1c-1.8,1-2.8,1.6-5.3,1.6
			s-3.5-0.6-5.3-1.6c-0.5-0.3-1.1-0.7-1.8-1v12.2c1.8,0.7,4.1,1.2,7.1,1.2c5.5,0,8.5-1.8,10.8-3.1c1.8-1,2.8-1.6,5.3-1.6
			c2.6,0,3.5,0.6,5.3,1.6c2.2,1.3,5.3,3.1,10.8,3.1s8.5-1.8,10.8-3.1c1.8-1,2.8-1.6,5.3-1.6c2.6,0,3.5,0.6,5.3,1.6
			c2.2,1.3,5.3,3.1,10.8,3.1c5.5,0,8.5-1.8,10.8-3.1c1.8-1,2.8-1.6,5.3-1.6c2.6,0,3.5,0.6,5.3,1.6c2.2,1.3,5.3,3.1,10.8,3.1
			c5.5,0,8.5-1.8,10.8-3.1c1.8-1,2.8-1.6,5.3-1.6c2.6,0,3.5,0.6,5.3,1.6c2.2,1.3,5.3,3.1,10.8,3.1c3,0,5.3-0.5,7.1-1.2V511.2z"/>
	</g>
	<path fill="#EF4136" d="M651.8,421.7L651.8,421.7c-2.5,2.5-6.5,2.5-8.9,0l0,0c-1.9-1.9-2.4-4.7-1.3-7.1l5.7-12.4l5.7,12.4
		C654.1,417,653.6,419.9,651.8,421.7z"/>
	<path fill="#EF4136" d="M751.7,421.7L751.7,421.7c-2.5,2.5-6.5,2.5-8.9,0l0,0c-1.9-1.9-2.4-4.7-1.3-7.1l5.7-12.4l5.7,12.4
		C754.1,417,753.6,419.9,751.7,421.7z"/>
	<path fill="#EF4136" d="M685.1,434.2L685.1,434.2c-2.5,2.5-6.5,2.5-8.9,0l0,0c-1.9-1.9-2.4-4.7-1.3-7.1l5.7-12.4l5.7,12.4
		C687.5,429.5,687,432.3,685.1,434.2z"/>
	<path fill="#EF4136" d="M718.4,434.2L718.4,434.2c-2.5,2.5-6.5,2.5-8.9,0l0,0c-1.9-1.9-2.4-4.7-1.3-7.1l5.7-12.4l5.7,12.4
		C720.8,429.5,720.3,432.3,718.4,434.2z"/>
	<path fill="#EFCEDD" d="M767,512.2c-1.8,1-2.8,1.6-5.3,1.6c-2.6,0-3.5-0.6-5.3-1.6c-2.2-1.3-5.3-3.1-10.8-3.1
		c-5.5,0-8.5,1.8-10.8,3.1c-1.8,1-2.8,1.6-5.3,1.6c-2.6,0-3.5-0.6-5.3-1.6c-2.2-1.3-5.3-3.1-10.8-3.1c-5.5,0-8.5,1.8-10.8,3.1
		c-1.8,1-2.8,1.6-5.3,1.6v10.8c5.5,0,8.5-1.8,10.8-3.1c1.8-1,2.8-1.6,5.3-1.6c2.6,0,3.5,0.6,5.3,1.6c2.2,1.3,5.3,3.1,10.8,3.1
		c5.5,0,8.5-1.8,10.8-3.1c1.8-1,2.8-1.6,5.3-1.6c2.6,0,3.5,0.6,5.3,1.6c2.2,1.3,5.3,3.1,10.8,3.1c3,0,5.3-0.5,7.1-1.2v-12.2
		C768.1,511.5,767.5,511.8,767,512.2z"/>
</g>
<g>
	<path fill="#73ACDD" d="M461.9,550.5L461.9,550.5c-42.2,16.9-89.3,16.9-131.6,0l0,0l65.8-166.2L461.9,550.5z"/>
	<path fill="#FFEA7E" d="M340.8,534.3c12.4,0,22.4-10,22.4-22.4c0-7.8-4-14.7-10.1-18.7L336.9,534
		C338.2,534.2,339.5,534.3,340.8,534.3z"/>
	<path fill="#44A3DB" d="M396.2,384.3l-0.8,2.1v176.8c22.6,0.1,45.2-4.1,66.6-12.7h0L396.2,384.3z"/>
	<circle fill="#FFD679" cx="404.5" cy="434.1" r="8.3"/>
	<circle fill="#FFEA7E" cx="398.6" cy="491.7" r="14.2"/>
	<path fill="#FFD679" d="M429.7,521c-13.9,0-25.2,11.3-25.2,25.2c0,6.3,2.3,12.1,6.1,16.5c14.6-1.2,29.1-4.2,43.1-9
		c0.7-2.4,1.1-4.9,1.1-7.5C454.8,532.2,443.6,521,429.7,521z"/>
	<path fill="#FFD679" d="M398.6,477.5c-1.1,0-2.2,0.1-3.3,0.4v27.6c1.1,0.3,2.2,0.4,3.3,0.4c7.8,0,14.2-6.4,14.2-14.2
		C412.8,483.9,406.5,477.5,398.6,477.5z"/>
	<circle fill="#FFD679" cx="395.3" cy="386.4" r="6.7"/>
</g>
<g>
	<path fill="#D7DF23" d="M404.9,163.4V89h-17.5v74.4c0,3.6-1.7,7.1-4.6,9.3v0c-6.6,5.1-10.5,12.9-10.5,21.3v100.5H420V194
		c0-8.3-3.9-16.2-10.5-21.3v0C406.6,170.5,404.9,167,404.9,163.4z"/>
	<path fill="#BFD730" d="M409.5,172.7c-2.9-2.2-4.6-5.6-4.6-9.3V89h-8.8v205.5H420V194C420,185.6,416.1,177.8,409.5,172.7z"/>
	<rect x="372.4" y="230.2" fill="#FFDD7B" width="47.6" height="11.4"/>
	<rect x="396.2" y="230.2" fill="#FDC174" width="23.8" height="11.4"/>
	<rect x="380.8" y="200.4" fill="#FFEA7E" width="30.7" height="64.5"/>
	<rect x="396.2" y="200.4" fill="#FFD679" width="15.3" height="64.5"/>
	<rect x="387.4" y="114.3" fill="#FFEA7E" width="17.5" height="8.3"/>
	<rect x="387.4" y="114.3" fill="#FFDD7B" width="17.5" height="8.3"/>
	<rect x="396.1" y="114.3" fill="#FDC174" width="8.8" height="8.3"/>
	<ellipse fill="#FFEA7E" cx="396.2" cy="119.2" rx="4.7" ry="10.2"/>
	<rect x="385.9" y="85.1" fill="#FAAA6D" width="20.6" height="11.4"/>
	<rect x="396.2" y="85.1" fill="#F79668" width="10.3" height="11.4"/>
	<path fill="#FFD679" d="M396.1,109.1v20.5c2.6,0,4.7-4.6,4.7-10.2C400.8,113.6,398.7,109.1,396.1,109.1z"/>
</g>
<g>
	<path fill="#FDC374" d="M731.7,105.7c-19.9-27.7-45.6,47.7-45.6,47.5C689.5,144.3,751.6,133.4,731.7,105.7z M696.1,142.5
		c0,0.1,15.3-44.9,27.2-28.4S698.1,137.1,696.1,142.5z"/>
	<rect x="629.8" y="150.7" fill="#F26D64" width="126.8" height="119.2"/>
	<rect x="693.2" y="150.7" fill="#D65055" width="63.4" height="119.2"/>
	<rect x="625.4" y="150.7" fill="#F26D64" width="135.6" height="35.8"/>
	<rect x="693.2" y="150.7" fill="#D65055" width="67.8" height="35.8"/>
	<rect x="675.3" y="150.7" fill="#FFD679" width="35.8" height="35.8"/>
	<rect x="693.2" y="150.7" fill="#FDC374" width="17.9" height="35.8"/>
	<rect x="681.4" y="186.5" fill="#FFD679" width="23.7" height="83.4"/>
	<rect x="693.2" y="186.5" fill="#FDC374" width="11.8" height="83.4"/>
	<path fill="#FFD679" d="M635.1,123.4c-13.2,19.3,53.9,27.3,53.9,27.3C684.6,144.7,648.2,104.1,635.1,123.4z M642.9,125.8
		c6.6-9.6,24.7,10.6,26.9,13.6C669.8,139.5,636.3,135.5,642.9,125.8z"/>
	<rect x="629.8" y="186.5" fill="#D14E53" width="126.8" height="5.1"/>
	<rect x="681.4" y="186.5" fill="#FAAC6E" width="23.7" height="5.1"/>
</g>
<g>
	<polygon fill="#FFD679" points="719.2,841.8 690.9,841.8 705,819.5 	"/>
	<polygon fill="#FDC374" points="719.2,841.8 705.2,841.8 705,819.5 	"/>
	<path fill="#808285" d="M709.7,894.9c-0.1,0-0.1,0-0.1,0l0-1.8c0.1,0,11.4,0.1,14.8-6.6c2.7-5.2,0.1-13.1-7.6-23.5
		c-23.8-32.2-14.4-43.6-14-44.1l1.3,1.2l-0.7-0.6l0.7,0.6c0,0-2.2,2.7-1.6,9.1c0.6,6,3.7,16.6,15.7,32.8c8.2,11,10.8,19.6,7.8,25.4
		C722.3,894.7,711.1,894.9,709.7,894.9z"/>
	<path fill="#F26D64" d="M759,734.8c0,35.2-24.2,89.5-54,89.5s-54-54.3-54-89.5s24.2-63.7,54-63.7S759,699.6,759,734.8z"/>
	<path fill="#EB5D5E" d="M705,671.1v153.2c29.8,0,54-54.3,54-89.5C759,699.6,734.8,671.1,705,671.1z"/>
</g>
<g>
	<path fill="#44A3DB" d="M935.6,404.3h125.6c4.7,0,8.5,3.8,8.5,8.5v134.1H927.1V412.8C927.1,408.1,930.9,404.3,935.6,404.3z"/>
	<path fill="#008FC6" d="M997.7,404.3h63.5c4.7,0,8.5,3.8,8.5,8.5v134.1h-72V404.3z"/>
	<polygon fill="#FFEA7E" points="1069.7,546.9 927.1,546.9 929.7,560 1067.1,560 	"/>
	<circle fill="#3E93C5" cx="998.4" cy="475.6" r="54.1"/>
	<path fill="#0074A1" d="M998.4,421.5c-0.2,0-0.5,0-0.7,0v108.3c0.2,0,0.5,0,0.7,0c29.9,0,54.1-24.2,54.1-54.1
		C1052.5,445.7,1028.3,421.5,998.4,421.5z"/>
	<circle fill="#D1D3D4" cx="998.4" cy="475.6" r="49.8"/>
	<path fill="#C0C2C4" d="M998.4,425.8c-0.2,0-0.5,0-0.7,0v99.5c0.2,0,0.5,0,0.7,0c27.5,0,49.8-22.3,49.8-49.8
		C1048.2,448.1,1025.9,425.8,998.4,425.8z"/>
	<circle fill="#FFEA7E" cx="998.4" cy="475.6" r="22"/>
	<rect x="938.2" y="415.1" fill="#FFEA7E" width="12.1" height="15.4"/>
	<rect x="944.3" y="495.4" fill="#FFEA7E" width="23.8" height="3.2"/>
	<rect x="941.6" y="430.5" fill="#FFD478" width="5.3" height="70.1"/>
	<path fill="#FFD478" d="M998.4,453.6c-0.2,0-0.5,0-0.7,0v44c0.2,0,0.5,0,0.7,0c12.2,0,22-9.9,22-22
		C1020.4,463.4,1010.6,453.6,998.4,453.6z"/>
	<circle fill="#FFFFFF" cx="998.4" cy="475.6" r="9.4"/>
	<polygon fill="#FFD478" points="997.7,546.9 997.7,560 1067.1,560 1069.7,546.9 	"/>
</g>
<g>
	<circle fill="#F179AF" cx="998.4" cy="721.2" r="48.1"/>
	<polygon fill="#FFD679" points="998.4,884.1 952.8,738.1 1044,738.1 	"/>
	<path fill="#EF60A3" d="M998.4,673.1v96.1c26.5,0,48.1-21.5,48.1-48.1C1046.5,694.7,1025,673.1,998.4,673.1z"/>
	<polygon fill="#FDC374" points="998.4,884.1 998.4,738.1 1044,738.1 	"/>
	<polygon fill="#FAAA6D" points="1048.8,747.5 948,747.5 946.2,732 1050.6,732 	"/>
	<rect x="998.4" y="732" fill="#F8A16B" width="52.2" height="15.5"/>
	<circle fill="#FDEBF3" cx="986.9" cy="692" r="5.5"/>
	<circle fill="#FDEBF3" cx="963" cy="716.5" r="4.7"/>
	<circle fill="#F9CBDF" cx="1016.9" cy="725.5" r="4.7"/>
	<circle fill="#F9CBDF" cx="1016.9" cy="702.9" r="4.7"/>
	<circle fill="#F9CBDF" cx="1040.7" cy="714" r="3.3"/>
</g>
</svg>
