<?xml version="1.0" standalone="no"?>
<!DOCTYPE svg PUBLIC "-//W3C//DTD SVG 20010904//EN"
 "http://www.w3.org/TR/2001/REC-SVG-20010904/DTD/svg10.dtd">
<svg version="1.0" xmlns="http://www.w3.org/2000/svg"
 width="512.000000pt" height="512.000000pt" viewBox="0 0 512.000000 512.000000"
 preserveAspectRatio="xMidYMid meet">
<metadata>
Created by potrace 1.11, written by Peter Selinger 2001-2013
</metadata>
<g transform="translate(0.000000,512.000000) scale(0.100000,-0.100000)"
fill="#000000" stroke="none">
<path d="M0 2560 l0 -2560 2560 0 2560 0 0 2560 0 2560 -2560 0 -2560 0 0
-2560z m5110 0 l0 -2550 -2550 0 -2550 0 0 2550 0 2550 2550 0 2550 0 0 -2550z"/>
<path d="M990 4763 c0 -3 7 -14 16 -24 21 -23 7 -44 -30 -44 -16 0 -31 -6 -33
-12 -3 -8 4 -13 16 -13 25 0 27 -9 4 -25 -14 -10 -20 -9 -33 8 -16 20 -17 19
-23 -20 -5 -29 -13 -42 -27 -46 -11 -3 -18 -1 -15 3 3 5 1 11 -4 14 -5 3 -5
21 -1 42 7 32 6 36 -16 44 -13 5 -37 16 -53 25 l-29 15 0 -43 c-1 -23 -8 -59
-16 -79 -20 -47 -20 -59 -1 -52 20 8 20 -20 -1 -40 -14 -15 -13 -16 10 -16 16
0 26 6 26 14 0 8 9 24 20 37 l20 24 27 -33 c31 -36 52 -40 93 -15 27 16 31 16
64 -2 30 -16 33 -21 25 -42 -5 -14 -9 -28 -9 -32 0 -4 35 -18 78 -30 104 -31
123 -41 117 -60 -2 -9 -20 -90 -40 -181 -45 -207 -42 -199 -71 -210 l-24 -9
22 -36 c16 -28 26 -35 42 -31 12 2 48 8 82 12 l61 6 48 107 c27 58 75 160 107
225 45 93 56 122 47 133 -21 24 -1 26 36 3 20 -12 38 -20 41 -18 2 3 -12 13
-31 24 -35 18 -44 37 -25 49 16 10 11 68 -8 93 -17 22 -19 22 -62 7 -47 -17
-46 -17 -76 38 -8 15 -21 27 -29 27 -13 0 -50 -39 -57 -61 -2 -5 -29 3 -60 18
-40 19 -58 34 -59 48 -1 16 -2 17 -6 3 -3 -14 -9 -15 -34 -6 -16 5 -34 19 -39
29 -10 17 -8 18 15 9 35 -13 35 -13 35 10 0 13 -10 24 -25 30 -28 11 -31 20
-13 38 9 9 8 12 -7 12 -20 1 -20 1 -1 15 11 8 15 15 10 15 -16 0 -34 -22 -34
-42 0 -23 -19 -24 -27 -1 -7 18 -43 57 -43 46z m71 -206 c-13 -34 -42 -37 -34
-4 8 31 24 50 35 39 5 -5 4 -20 -1 -35z m274 -16 c-3 -12 -13 -21 -21 -21 -9
0 -12 5 -8 13 23 40 41 46 29 8z m-96 -22 c17 -6 31 -15 31 -21 0 -6 -7 -8
-15 -4 -10 4 -22 -8 -38 -40 -22 -43 -24 -44 -39 -27 -16 17 -16 21 2 61 10
23 21 42 23 42 2 0 18 -5 36 -11z m247 -77 c-20 -20 -22 -1 -4 31 11 20 12 21
16 3 2 -10 -3 -26 -12 -34z m-176 34 c0 -3 -4 -8 -10 -11 -5 -3 -10 -1 -10 4
0 6 5 11 10 11 6 0 10 -2 10 -4z m125 -76 c3 -5 2 -10 -4 -10 -5 0 -13 5 -16
10 -3 6 -2 10 4 10 5 0 13 -4 16 -10z m-78 -237 c-3 -3 -11 -2 -17 2 -8 5 -7
11 2 22 12 15 13 14 16 -1 2 -10 1 -20 -1 -23z"/>
<path d="M1115 4740 c-3 -6 1 -7 9 -4 18 7 21 14 7 14 -6 0 -13 -4 -16 -10z"/>
<path d="M790 4473 c1 -23 19 -34 46 -28 25 5 26 4 7 -4 -15 -7 -21 -17 -19
-36 4 -35 -47 -80 -74 -65 -26 14 -27 13 -32 -18 -4 -26 -2 -27 27 -24 17 2
49 -3 69 -12 48 -20 46 -20 46 7 0 45 21 99 41 104 15 4 17 8 8 19 -19 23 -4
26 24 4 14 -11 33 -20 44 -20 14 0 15 2 4 9 -11 7 -11 9 0 13 21 7 0 28 -28
28 -15 0 -34 7 -44 16 -13 12 -22 13 -36 5 -12 -6 -25 -6 -34 0 -17 11 -49 12
-49 2z"/>
<path d="M631 4368 c13 -47 27 -56 35 -23 5 21 2 31 -11 42 -29 20 -34 16 -24
-19z"/>
<path d="M732 4380 c0 -14 2 -19 5 -12 2 6 2 18 0 25 -3 6 -5 1 -5 -13z"/>
<path d="M1528 4308 c-13 -24 -33 -65 -45 -93 -12 -27 -47 -103 -77 -169 -31
-65 -56 -120 -56 -122 0 -2 6 -2 13 1 6 2 44 9 84 15 70 11 72 13 84 47 7 22
9 65 5 116 -6 81 -6 82 24 115 16 17 34 32 40 32 5 0 10 18 10 40 0 29 -5 42
-19 50 -31 16 -38 13 -63 -32z"/>
<path d="M777 4022 c-4 -6 -34 -16 -67 -23 -32 -6 -61 -18 -64 -25 -7 -19 105
-140 114 -122 11 21 33 154 28 169 -3 9 -6 10 -11 1z"/>
<path d="M3700 1716 c0 -4 9 -19 19 -32 11 -14 17 -33 14 -44 -5 -17 -11 -19
-43 -14 -21 3 -45 2 -55 -3 -16 -9 -16 -11 0 -26 9 -10 26 -17 38 -17 20 0 20
-2 -8 -25 l-30 -24 -21 25 c-22 27 -34 23 -34 -12 0 -12 -4 -34 -10 -48 -8
-23 -12 -24 -40 -14 -30 10 -31 13 -24 47 16 77 14 81 -50 107 -33 13 -65 24
-72 24 -8 0 -15 -22 -20 -57 -4 -32 -13 -78 -20 -103 -8 -25 -14 -69 -14 -97
0 -51 1 -53 28 -53 22 0 31 8 47 43 28 57 53 60 95 8 38 -49 68 -53 122 -16
20 14 40 25 44 25 3 0 19 -11 36 -25 16 -14 38 -25 49 -25 19 0 19 -2 5 -22
-9 -12 -16 -34 -16 -49 0 -24 7 -29 73 -52 39 -14 83 -29 97 -32 49 -12 100
-38 100 -51 0 -7 -13 -69 -30 -136 -16 -68 -41 -172 -55 -233 -44 -189 -42
-183 -81 -200 l-35 -15 18 -32 c28 -51 43 -66 61 -62 9 1 61 8 115 15 l98 12
155 314 c85 174 154 319 154 323 0 4 -7 13 -15 20 -18 15 -20 30 -4 30 7 0 34
-13 61 -30 26 -16 54 -30 61 -30 6 0 -10 14 -38 31 -69 43 -71 46 -51 68 10
11 20 39 23 63 3 36 -1 48 -25 77 l-30 35 -57 -22 c-67 -26 -73 -23 -104 48
-14 33 -28 50 -39 50 -21 0 -64 -42 -85 -82 l-14 -28 -42 30 c-23 17 -59 36
-79 43 -34 12 -37 16 -35 47 2 33 1 34 -8 9 -9 -25 -11 -26 -46 -14 -32 11
-88 63 -79 72 2 2 16 -3 32 -12 45 -23 63 -20 60 12 -3 27 -13 36 -48 47 -33
10 -20 41 23 60 39 17 41 17 55 0 14 -18 15 -18 5 2 -11 22 -41 40 -41 25 0
-12 -59 -35 -68 -26 -4 3 6 18 21 31 35 30 27 31 -18 2 -28 -18 -34 -28 -30
-45 4 -18 1 -23 -15 -23 -13 0 -20 7 -20 18 0 10 -13 31 -30 47 -16 16 -30 25
-30 21z m-179 -249 c-1 -12 -15 -9 -19 4 -3 6 1 10 8 8 6 -3 11 -8 11 -12z
m299 5 c0 -7 -41 -82 -44 -82 -3 0 -12 -3 -21 -7 -15 -5 -16 -1 -10 28 4 19
13 37 19 41 6 4 7 8 1 8 -5 0 -5 4 2 8 12 8 53 11 53 4z m380 -48 c0 -15 -36
-64 -47 -64 -18 0 -16 13 8 44 19 24 39 34 39 20z m-111 -78 c11 -9 8 -12 -15
-16 -22 -4 -34 -15 -49 -47 -30 -63 -40 -70 -65 -48 -26 23 -25 34 6 98 l27
54 41 -15 c23 -9 47 -20 55 -26z m306 14 c3 -5 1 -10 -4 -10 -6 0 -11 5 -11
10 0 6 2 10 4 10 3 0 8 -4 11 -10z m-100 -20 c3 -5 -1 -10 -9 -10 -8 0 -18 5
-21 10 -3 6 1 10 9 10 8 0 18 -4 21 -10z m120 -63 c-4 -14 -13 -31 -21 -38
-11 -9 -14 -7 -14 9 0 11 5 33 10 48 14 35 34 18 25 -19z m-270 23 c3 -5 -1
-10 -9 -10 -9 0 -16 5 -16 10 0 6 4 10 9 10 6 0 13 -4 16 -10z m186 -116 c12
-14 11 -16 -5 -13 -11 2 -21 10 -24 17 -5 17 13 15 29 -4z m-115 -295 c3 -6
-1 -18 -10 -27 -14 -14 -18 -15 -25 -3 -5 8 -7 20 -4 28 6 16 29 17 39 2z"/>
<path d="M3402 1304 c-24 -26 -3 -37 62 -31 l61 5 -38 -15 c-24 -10 -36 -21
-33 -30 3 -7 1 -13 -5 -13 -6 0 -6 -7 1 -19 14 -27 15 -24 -35 -60 -43 -31
-45 -31 -74 -16 -17 8 -31 15 -33 15 -2 0 -4 -17 -6 -38 l-2 -37 52 -3 c29 -2
73 -12 97 -23 24 -10 45 -18 46 -17 0 2 10 41 21 88 19 84 20 85 52 88 l32 3
-20 26 c-30 38 -15 41 29 5 52 -41 78 -42 79 -2 1 30 -1 31 -63 45 -16 4 -38
14 -48 22 -14 13 -24 14 -52 6 -26 -8 -38 -8 -52 3 -23 18 -55 17 -71 -2z"/>
<path d="M3326 1199 c-4 -23 -5 -44 -2 -46 2 -2 7 14 11 37 4 23 5 43 2 46 -2
3 -7 -14 -11 -37z"/>
<path d="M3165 1200 c4 -6 9 -23 11 -38 3 -15 13 -35 22 -45 17 -20 24 -13 35
34 6 22 2 28 -29 42 -40 20 -48 21 -39 7z"/>
<path d="M4344 834 c-76 -157 -140 -292 -142 -300 -4 -17 3 -17 105 -4 121 16
118 15 140 67 17 42 18 62 12 163 l-7 114 42 48 c22 26 49 47 59 48 19 0 22
26 11 92 -5 30 -12 39 -37 47 -16 6 -33 11 -37 11 -3 0 -69 -129 -146 -286z"/>
<path d="M3382 668 c-6 -6 -12 -9 -12 -5 0 4 -10 2 -22 -5 -13 -7 -27 -14 -33
-14 -5 -1 -12 -3 -15 -4 -18 -6 -50 -11 -77 -11 -56 1 -45 -37 40 -135 39 -46
75 -84 79 -84 8 0 10 4 39 148 22 108 22 131 1 110z"/>
</g>
</svg>
